<?xml version="1.0" ?><svg height="32px" id="icon" style="enable-background:new 0 0 32 32;" version="1.1" viewBox="0 0 32 32" width="32px" xml:space="preserve" xmlns="http://www.w3.org/2000/svg" xmlns:xlink="http://www.w3.org/1999/xlink"><style type="text/css">
	.st0{fill:none;}
	.st1{opacity:0;}
</style><rect class="st0" height="32" id="_Transparent_Rectangle_" width="32"/><path d="M16,2C8.3,2,2,8.3,2,16s6.3,14,14,14s14-6.3,14-14S23.7,2,16,2z M16,22c-3.3,0-6-2.7-6-6s2.7-6,6-6s6,2.7,6,6S19.3,22,16,22  z"/><path class="st1" d="M16,10c-3.3,0-6,2.7-6,6s2.7,6,6,6s6-2.7,6-6S19.3,10,16,10z" id="inner-path"/></svg>